<svg width="643" height="500" viewBox="0 0 643 500" fill="none" xmlns="http://www.w3.org/2000/svg">
<g clip-path="url(#clip0)">
<path d="M24.6876 3.05176e-05C18.1423 0.00747979 11.8673 2.61088 7.23906 7.2391C2.61084 11.8673 0.00744107 18.1424 0 24.6877V475.313C0.00754949 481.858 2.611 488.133 7.2392 492.761C11.8674 497.389 18.1424 499.993 24.6876 500H271.517C278.062 499.993 284.337 497.389 288.965 492.761C293.594 488.133 296.197 481.858 296.205 475.313V24.6876C296.197 18.1424 293.594 11.8673 288.966 7.23909C284.337 2.61088 278.062 0.00747771 271.517 3.05176e-05H24.6876Z" fill="#E6E6E6"/>
<path d="M32.7563 14.0264C27.7906 14.032 23.0298 16.0072 19.5185 19.5185C16.0072 23.0298 14.032 27.7906 14.0264 32.7563V467.243C14.032 472.209 16.0071 476.97 19.5184 480.481C23.0297 483.993 27.7905 485.968 32.7563 485.974H263.448C268.414 485.968 273.175 483.993 276.686 480.481C280.198 476.97 282.173 472.209 282.178 467.243V32.7563C282.173 27.7906 280.197 23.0298 276.686 19.5185C273.175 16.0072 268.414 14.032 263.448 14.0264H32.7563Z" fill="white"/>
<path d="M259.489 105.6H36.716C35.6222 105.599 34.5737 105.164 33.8003 104.391C33.0269 103.617 32.5918 102.569 32.5905 101.475V46.2147C32.5918 45.121 33.0269 44.0724 33.8003 43.299C34.5737 42.5256 35.6222 42.0906 36.716 42.0893H259.489C260.582 42.0906 261.631 42.5256 262.404 43.299C263.178 44.0724 263.613 45.121 263.614 46.2147V101.475C263.613 102.569 263.178 103.617 262.404 104.391C261.631 105.164 260.582 105.599 259.489 105.6ZM36.716 43.7394C36.0597 43.7401 35.4305 44.0012 34.9665 44.4652C34.5024 44.9293 34.2414 45.5584 34.2407 46.2147V101.475C34.2414 102.131 34.5024 102.761 34.9665 103.225C35.4305 103.689 36.0597 103.95 36.716 103.95H259.489C260.145 103.95 260.774 103.689 261.238 103.225C261.702 102.761 261.963 102.131 261.964 101.475V46.2147C261.963 45.5584 261.702 44.9293 261.238 44.4652C260.774 44.0012 260.145 43.7401 259.489 43.7394L36.716 43.7394Z" fill="#E6E6E6"/>
<path d="M259.489 324.247H36.716C35.6222 324.246 34.5737 323.811 33.8003 323.038C33.0269 322.264 32.5918 321.216 32.5905 320.122V217.832C32.5918 216.738 33.0269 215.69 33.8003 214.916C34.5737 214.143 35.6222 213.708 36.716 213.706H259.489C260.582 213.708 261.631 214.143 262.404 214.916C263.178 215.69 263.613 216.738 263.614 217.832V320.122C263.613 321.216 263.178 322.264 262.404 323.038C261.631 323.811 260.582 324.246 259.489 324.247ZM36.716 215.357C36.0597 215.357 35.4305 215.618 34.9665 216.082C34.5024 216.546 34.2414 217.176 34.2407 217.832V320.122C34.2414 320.778 34.5024 321.407 34.9665 321.871C35.4305 322.336 36.0597 322.597 36.716 322.597H259.489C260.145 322.597 260.774 322.336 261.238 321.872C261.702 321.407 261.963 320.778 261.964 320.122V217.832C261.963 217.176 261.702 216.546 261.238 216.082C260.774 215.618 260.145 215.357 259.489 215.357L36.716 215.357Z" fill="#E6E6E6"/>
<path d="M257.838 191.409H158.828C157.734 191.408 156.686 190.973 155.912 190.199C155.139 189.426 154.704 188.377 154.703 187.284V132.023C154.704 130.93 155.139 129.881 155.912 129.108C156.686 128.334 157.734 127.899 158.828 127.898H257.838C258.932 127.899 259.981 128.334 260.754 129.108C261.528 129.881 261.963 130.93 261.964 132.023V187.284C261.963 188.377 261.527 189.426 260.754 190.199C259.981 190.973 258.932 191.408 257.838 191.409ZM158.828 129.548C158.172 129.549 157.543 129.81 157.079 130.274C156.615 130.738 156.354 131.367 156.353 132.023V187.284C156.354 187.94 156.615 188.569 157.079 189.033C157.543 189.497 158.172 189.758 158.828 189.759H257.838C258.495 189.758 259.124 189.497 259.588 189.033C260.052 188.569 260.313 187.94 260.314 187.284V132.023C260.313 131.367 260.052 130.738 259.588 130.274C259.124 129.81 258.495 129.549 257.838 129.548L158.828 129.548Z" fill="#E6E6E6"/>
<path d="M135.726 457.911H36.716C35.6222 457.909 34.5737 457.474 33.8003 456.701C33.0269 455.928 32.5918 454.879 32.5905 453.785V350.67C32.5918 349.576 33.0269 348.528 33.8003 347.754C34.5737 346.981 35.6222 346.546 36.716 346.545H135.726C136.82 346.546 137.869 346.981 138.642 347.754C139.415 348.528 139.85 349.576 139.852 350.67V453.785C139.85 454.879 139.415 455.928 138.642 456.701C137.869 457.474 136.82 457.909 135.726 457.911ZM36.716 348.195C36.0597 348.196 35.4305 348.457 34.9665 348.921C34.5024 349.385 34.2414 350.014 34.2407 350.67V453.785C34.2414 454.442 34.5024 455.071 34.9665 455.535C35.4305 455.999 36.0597 456.26 36.716 456.261H135.726C136.383 456.26 137.012 455.999 137.476 455.535C137.94 455.071 138.201 454.442 138.202 453.785V350.67C138.201 350.014 137.94 349.385 137.476 348.921C137.012 348.457 136.383 348.196 135.726 348.195H36.716Z" fill="#E6E6E6"/>
<path d="M257.838 457.911H158.828C157.734 457.909 156.686 457.474 155.912 456.701C155.139 455.928 154.704 454.879 154.703 453.785V350.67C154.704 349.576 155.139 348.528 155.912 347.754C156.686 346.981 157.734 346.546 158.828 346.545H257.838C258.932 346.546 259.981 346.981 260.754 347.754C261.527 348.528 261.963 349.576 261.964 350.67V453.785C261.963 454.879 261.528 455.928 260.754 456.701C259.981 457.474 258.932 457.909 257.838 457.911ZM158.828 348.195C158.172 348.196 157.543 348.457 157.079 348.921C156.615 349.385 156.354 350.014 156.353 350.67V453.785C156.354 454.442 156.615 455.071 157.079 455.535C157.543 455.999 158.172 456.26 158.828 456.261H257.838C258.495 456.26 259.124 455.999 259.588 455.535C260.052 455.071 260.313 454.442 260.314 453.785V350.67C260.313 350.014 260.052 349.385 259.588 348.921C259.124 348.457 258.495 348.196 257.838 348.195H158.828Z" fill="#E6E6E6"/>
<path d="M69.6801 266.747C78.9612 266.747 86.4849 259.223 86.4849 249.942C86.4849 240.661 78.9612 233.138 69.6801 233.138C60.3991 233.138 52.8754 240.661 52.8754 249.942C52.8754 259.223 60.3991 266.747 69.6801 266.747Z" fill="#E6E6E6"/>
<path d="M108.491 238.739C107.748 238.739 107.036 239.034 106.511 239.56C105.985 240.085 105.69 240.797 105.69 241.54C105.69 242.283 105.985 242.995 106.511 243.52C107.036 244.046 107.748 244.341 108.491 244.341H240.528C241.27 244.339 241.981 244.043 242.505 243.518C243.028 242.993 243.323 242.282 243.323 241.54C243.323 240.798 243.028 240.087 242.505 239.562C241.981 239.037 241.27 238.741 240.528 238.739H108.491Z" fill="#E6E6E6"/>
<path d="M108.491 255.544C107.749 255.543 107.037 255.837 106.511 256.361C105.985 256.885 105.689 257.596 105.687 258.339C105.686 259.081 105.979 259.794 106.502 260.32C107.026 260.846 107.737 261.143 108.479 261.145H165.307C166.05 261.145 166.762 260.85 167.288 260.325C167.813 259.8 168.108 259.087 168.108 258.345C168.108 257.602 167.813 256.889 167.288 256.364C166.762 255.839 166.05 255.544 165.307 255.544H108.491Z" fill="#E6E6E6"/>
<path d="M56.7905 282.41C54.66 282.41 52.9262 283.666 52.9262 285.211C52.9262 286.755 54.66 288.011 56.7905 288.011H238.961C241.092 288.011 242.826 286.755 242.826 285.211C242.826 283.666 241.092 282.41 238.961 282.41H56.7905Z" fill="#E6E6E6"/>
<path d="M56.7905 299.215C54.66 299.215 52.9262 300.471 52.9262 302.015C52.9262 303.56 54.66 304.816 56.7905 304.816H238.961C241.092 304.816 242.826 303.56 242.826 302.015C242.826 300.471 241.092 299.215 238.961 299.215H56.7905Z" fill="#E6E6E6"/>
<path d="M71.3303 88.5293C80.6113 88.5293 88.135 81.0055 88.135 71.7245C88.135 62.4435 80.6113 54.9198 71.3303 54.9198C62.0493 54.9198 54.5255 62.4435 54.5255 71.7245C54.5255 81.0055 62.0493 88.5293 71.3303 88.5293Z" fill="#E6E6E6"/>
<path d="M110.141 60.5214C109.4 60.5231 108.689 60.819 108.165 61.344C107.641 61.8691 107.347 62.5805 107.347 63.3221C107.347 64.0638 107.641 64.7752 108.165 65.3003C108.689 65.8253 109.4 66.1212 110.141 66.1229H242.179C242.547 66.1241 242.911 66.0527 243.252 65.9128C243.592 65.773 243.902 65.5674 244.163 65.3078C244.424 65.0482 244.631 64.7398 244.772 64.4001C244.914 64.0604 244.987 63.6961 244.988 63.3281C244.989 62.96 244.917 62.5954 244.777 62.2551C244.637 61.9149 244.431 61.6055 244.171 61.3449C243.911 61.0842 243.603 60.8773 243.263 60.736C242.923 60.5947 242.558 60.5218 242.19 60.5214C242.186 60.5214 242.183 60.5214 242.179 60.5214H110.141Z" fill="#E6E6E6"/>
<path d="M110.141 77.3261C109.399 77.3273 108.688 77.623 108.164 78.1481C107.64 78.6732 107.345 79.3849 107.345 80.1269C107.345 80.8689 107.64 81.5806 108.164 82.1057C108.688 82.6308 109.399 82.9265 110.141 82.9277H166.957C167.7 82.9293 168.413 82.6357 168.939 82.1115C169.466 81.5874 169.762 80.8756 169.764 80.1328C169.766 79.39 169.472 78.677 168.948 78.1506C168.424 77.6243 167.712 77.3277 166.969 77.3261C166.965 77.3261 166.961 77.3261 166.957 77.3261H110.141Z" fill="#E6E6E6"/>
<path d="M135.639 191.419H42.7584L64.6162 153.56C65.008 152.881 65.5714 152.318 66.25 151.926C66.9285 151.534 67.6983 151.328 68.4818 151.328C69.2653 151.328 70.035 151.534 70.7136 151.926C71.3921 152.318 71.9556 152.881 72.3473 153.56L81.6847 169.733L97.5615 142.233C98.0519 141.384 98.7574 140.678 99.607 140.188C100.457 139.697 101.42 139.439 102.401 139.439C103.382 139.439 104.346 139.697 105.195 140.188C106.045 140.678 106.75 141.384 107.241 142.233L135.639 191.419ZM45.6164 189.769H132.781L105.812 143.058C105.466 142.46 104.969 141.962 104.37 141.617C103.772 141.271 103.093 141.089 102.401 141.089C101.71 141.089 101.031 141.271 100.432 141.617C99.8336 141.962 99.3365 142.46 98.991 143.058L81.6848 173.033L70.918 154.385C70.6712 153.957 70.3161 153.602 69.8885 153.355C69.4608 153.108 68.9757 152.978 68.4819 152.978C67.988 152.978 67.5029 153.108 67.0752 153.355C66.6476 153.602 66.2925 153.957 66.0457 154.385L45.6164 189.769Z" fill="#E6E6E6"/>
<path d="M254.451 191.419H161.57L183.428 153.56C183.82 152.881 184.383 152.318 185.062 151.926C185.74 151.534 186.51 151.328 187.294 151.328C188.077 151.328 188.847 151.534 189.525 151.926C190.204 152.318 190.768 152.881 191.159 153.56L200.497 169.733L216.373 142.233C216.864 141.384 217.569 140.678 218.419 140.188C219.268 139.697 220.232 139.439 221.213 139.439C222.194 139.439 223.158 139.697 224.007 140.188C224.857 140.678 225.562 141.384 226.053 142.233L254.451 191.419ZM164.428 189.769H251.593L224.623 143.058C224.278 142.46 223.781 141.962 223.182 141.617C222.583 141.271 221.904 141.089 221.213 141.089C220.522 141.089 219.843 141.271 219.244 141.617C218.645 141.962 218.148 142.46 217.803 143.058L200.497 173.033L189.73 154.385C189.483 153.957 189.128 153.602 188.7 153.355C188.273 153.108 187.788 152.978 187.294 152.978C186.8 152.978 186.315 153.108 185.887 153.355C185.459 153.602 185.104 153.957 184.858 154.385L164.428 189.769Z" fill="#E6E6E6"/>
<path d="M135.726 191.409H36.716C35.6222 191.408 34.5737 190.973 33.8003 190.199C33.0269 189.426 32.5919 188.377 32.5906 187.284V132.023C32.5919 130.93 33.0269 129.881 33.8003 129.108C34.5737 128.334 35.6223 127.899 36.716 127.898H135.726C136.82 127.899 137.869 128.334 138.642 129.108C139.415 129.881 139.85 130.93 139.852 132.023V187.284C139.85 188.377 139.415 189.426 138.642 190.199C137.869 190.973 136.82 191.408 135.726 191.409ZM36.716 129.548C36.0597 129.549 35.4305 129.81 34.9665 130.274C34.5024 130.738 34.2414 131.367 34.2407 132.023V187.284C34.2414 187.94 34.5024 188.569 34.9665 189.033C35.4305 189.497 36.0597 189.758 36.716 189.759H135.726C136.383 189.758 137.012 189.497 137.476 189.033C137.94 188.569 138.201 187.94 138.202 187.284V132.023C138.201 131.367 137.94 130.738 137.476 130.274C137.012 129.81 136.383 129.549 135.726 129.548L36.716 129.548Z" fill="#E6E6E6"/>
<path d="M57.8131 367.809C57.4449 367.808 57.0802 367.88 56.7398 368.021C56.3995 368.161 56.0902 368.367 55.8296 368.628C55.569 368.888 55.3623 369.197 55.2212 369.537C55.0802 369.877 55.0076 370.242 55.0076 370.61C55.0076 370.978 55.0802 371.343 55.2212 371.683C55.3623 372.023 55.569 372.332 55.8296 372.592C56.0902 372.852 56.3995 373.058 56.7398 373.199C57.0802 373.339 57.4449 373.411 57.8131 373.411H114.629C114.997 373.411 115.362 373.339 115.702 373.199C116.043 373.058 116.352 372.852 116.613 372.592C116.873 372.332 117.08 372.023 117.221 371.683C117.362 371.343 117.435 370.978 117.435 370.61C117.435 370.242 117.362 369.877 117.221 369.537C117.08 369.197 116.873 368.888 116.613 368.628C116.352 368.367 116.043 368.161 115.702 368.021C115.362 367.88 114.997 367.808 114.629 367.809H57.8131Z" fill="#E6E6E6"/>
<path d="M57.8131 384.311C57.0703 384.311 56.3579 384.606 55.8326 385.131C55.3073 385.656 55.0123 386.369 55.0123 387.111C55.0123 387.854 55.3073 388.567 55.8326 389.092C56.3579 389.617 57.0703 389.912 57.8131 389.912H114.629C115.372 389.912 116.084 389.617 116.61 389.092C117.135 388.567 117.43 387.854 117.43 387.111C117.43 386.369 117.135 385.656 116.61 385.131C116.084 384.606 115.372 384.311 114.629 384.311H57.8131Z" fill="#E6E6E6"/>
<path d="M86.2213 436.646C82.7345 436.646 79.3259 435.612 76.4267 433.675C73.5276 431.738 71.2679 428.985 69.9336 425.763C68.5992 422.542 68.2501 418.997 68.9303 415.577C69.6106 412.158 71.2897 409.016 73.7552 406.551C76.2208 404.085 79.3621 402.406 82.7819 401.726C86.2018 401.046 89.7465 401.395 92.9679 402.729C96.1893 404.063 98.9427 406.323 100.88 409.222C102.817 412.121 103.851 415.53 103.851 419.017C103.846 423.691 101.987 428.172 98.6815 431.477C95.3765 434.782 90.8953 436.641 86.2213 436.646ZM86.2213 403.037C83.0608 403.037 79.9713 403.974 77.3435 405.73C74.7157 407.486 72.6676 409.982 71.4581 412.902C70.2487 415.821 69.9322 419.034 70.5488 422.134C71.1654 425.234 72.6873 428.081 74.9221 430.316C77.1568 432.551 80.0041 434.073 83.1039 434.689C86.2036 435.306 89.4165 434.989 92.3364 433.78C95.2563 432.57 97.752 430.522 99.5078 427.894C101.264 425.267 102.201 422.177 102.201 419.017C102.196 414.78 100.511 410.719 97.5151 407.723C94.5194 404.727 90.4578 403.042 86.2213 403.037V403.037Z" fill="#E6E6E6"/>
<path d="M236.741 436.646C237.109 436.647 237.474 436.575 237.815 436.435C238.155 436.294 238.464 436.088 238.725 435.828C238.985 435.568 239.192 435.259 239.333 434.919C239.474 434.578 239.547 434.214 239.547 433.846C239.547 433.477 239.474 433.113 239.333 432.773C239.192 432.433 238.985 432.124 238.725 431.864C238.464 431.603 238.155 431.397 237.815 431.257C237.474 431.116 237.109 431.044 236.741 431.045H179.925C179.183 431.046 178.472 431.342 177.948 431.867C177.424 432.392 177.129 433.104 177.129 433.846C177.129 434.588 177.424 435.299 177.948 435.824C178.472 436.35 179.183 436.645 179.925 436.646H236.741Z" fill="#E6E6E6"/>
<path d="M236.741 420.145C237.11 420.145 237.474 420.073 237.815 419.933C238.155 419.792 238.464 419.586 238.725 419.326C238.985 419.066 239.192 418.757 239.333 418.417C239.474 418.077 239.547 417.712 239.547 417.344C239.547 416.976 239.474 416.611 239.333 416.271C239.192 415.931 238.985 415.622 238.725 415.362C238.464 415.102 238.155 414.896 237.815 414.755C237.474 414.615 237.11 414.543 236.741 414.543H179.925C179.182 414.543 178.47 414.838 177.945 415.364C177.42 415.889 177.124 416.601 177.124 417.344C177.124 418.087 177.42 418.799 177.945 419.324C178.47 419.85 179.182 420.145 179.925 420.145H236.741Z" fill="#E6E6E6"/>
<path d="M208.333 367.809C211.82 367.809 215.228 368.843 218.128 370.78C221.027 372.717 223.286 375.471 224.621 378.692C225.955 381.913 226.304 385.458 225.624 388.878C224.944 392.298 223.265 395.439 220.799 397.905C218.334 400.37 215.192 402.049 211.772 402.73C208.353 403.41 204.808 403.061 201.587 401.726C198.365 400.392 195.612 398.132 193.675 395.233C191.737 392.334 190.703 388.925 190.703 385.439V385.439C190.709 380.765 192.568 376.283 195.873 372.978C199.178 369.673 203.659 367.814 208.333 367.809ZM208.333 401.418C211.494 401.418 214.583 400.481 217.211 398.725C219.839 396.969 221.887 394.474 223.096 391.554C224.306 388.634 224.622 385.421 224.006 382.321C223.389 379.221 221.867 376.374 219.632 374.139C217.398 371.905 214.55 370.383 211.451 369.766C208.351 369.15 205.138 369.466 202.218 370.675C199.298 371.885 196.803 373.933 195.047 376.561C193.291 379.189 192.354 382.278 192.354 385.439V385.439C192.359 389.675 194.044 393.737 197.039 396.732C200.035 399.728 204.097 401.413 208.333 401.418V401.418Z" fill="#E6E6E6"/>
<path opacity="0.3" d="M181.327 143.889C204.374 143.889 223.058 125.206 223.058 102.158C223.058 79.111 204.374 60.4273 181.327 60.4273C158.279 60.4273 139.595 79.111 139.595 102.158C139.595 125.206 158.279 143.889 181.327 143.889Z" fill="#2F2E41"/>
<path opacity="0.3" d="M181.326 129.979C196.691 129.979 209.147 117.523 209.147 102.158C209.147 86.7934 196.691 74.3376 181.326 74.3376C165.962 74.3376 153.506 86.7934 153.506 102.158C153.506 117.523 165.962 129.979 181.326 129.979Z" fill="#2F2E41"/>
<path d="M181.327 121.478C191.997 121.478 200.646 112.828 200.646 102.158C200.646 91.4883 191.997 82.8384 181.327 82.8384C170.656 82.8384 162.007 91.4883 162.007 102.158C162.007 112.828 170.656 121.478 181.327 121.478Z" fill="#2F2E41"/>
<path opacity="0.3" d="M86.2724 415.08C103.311 415.08 117.123 401.268 117.123 384.229C117.123 367.191 103.311 353.378 86.2724 353.378C69.2339 353.378 55.4214 367.191 55.4214 384.229C55.4214 401.268 69.2339 415.08 86.2724 415.08Z" fill="#2F2E41"/>
<path opacity="0.3" d="M86.2724 404.797C97.6315 404.797 106.84 395.588 106.84 384.229C106.84 372.87 97.6315 363.662 86.2724 363.662C74.9134 363.662 65.705 372.87 65.705 384.229C65.705 395.588 74.9134 404.797 86.2724 404.797Z" fill="#2F2E41"/>
<path d="M86.2724 398.512C94.1607 398.512 100.555 392.118 100.555 384.229C100.555 376.341 94.1607 369.947 86.2724 369.947C78.3842 369.947 71.9895 376.341 71.9895 384.229C71.9895 392.118 78.3842 398.512 86.2724 398.512Z" fill="#2F2E41"/>
<path opacity="0.3" d="M214.557 299.161C234.156 299.161 250.045 283.272 250.045 263.673C250.045 244.074 234.156 228.185 214.557 228.185C194.957 228.185 179.069 244.074 179.069 263.673C179.069 283.272 194.957 299.161 214.557 299.161Z" fill="#2F2E41"/>
<path opacity="0.3" d="M214.557 287.332C227.623 287.332 238.215 276.739 238.215 263.673C238.215 250.607 227.623 240.014 214.557 240.014C201.491 240.014 190.898 250.607 190.898 263.673C190.898 276.739 201.491 287.332 214.557 287.332Z" fill="#2F2E41"/>
<path d="M214.557 280.103C223.631 280.103 230.986 272.747 230.986 263.673C230.986 254.599 223.631 247.243 214.557 247.243C205.483 247.243 198.127 254.599 198.127 263.673C198.127 272.747 205.483 280.103 214.557 280.103Z" fill="#2F2E41"/>
<path d="M379.519 318.774L372.218 331.106C371.496 332.326 370.502 333.363 369.314 334.136C368.126 334.908 366.775 335.396 365.367 335.561C363.959 335.726 362.532 335.564 361.197 335.087C359.862 334.61 358.656 333.831 357.671 332.812C356.755 331.863 356.053 330.728 355.613 329.484C355.174 328.24 355.007 326.916 355.123 325.602C355.24 324.288 355.637 323.015 356.289 321.868C356.941 320.721 357.831 319.727 358.9 318.954L370.774 310.369C382.176 294.935 388.727 268.703 394.31 240.315L417.511 243.036C411.531 266.255 397.231 291.997 379.519 318.774Z" fill="#FFB8B8"/>
<path d="M382.393 248.595L420.12 259.294V193.413L415.112 195.033C410.737 196.448 406.762 198.884 403.514 202.14C400.267 205.395 397.841 209.376 396.437 213.755L382.393 248.595Z" fill="#E6E6E6"/>
<path d="M459.535 484.527L445.458 483.964C440.836 436.386 434.933 393.179 422.935 370.784C411.316 383.23 408.676 422.549 406.732 476.081H393.092C378.752 414.389 375.131 370.648 393.092 329.116H466.293L459.535 484.527Z" fill="#2F2E41"/>
<path d="M407.582 485.622L383.148 498.104C382.494 498.438 381.778 498.635 381.045 498.682C380.312 498.729 379.577 498.625 378.886 498.378C378.194 498.13 377.561 497.743 377.025 497.241C376.488 496.739 376.061 496.132 375.768 495.459C375.248 494.263 375.18 492.919 375.577 491.677C375.974 490.435 376.808 489.379 377.925 488.707L381.256 486.699L390.533 472.83L406.345 471.581L409.238 474.353C410.043 475.125 410.651 476.077 411.013 477.132C411.375 478.186 411.479 479.312 411.317 480.415C411.155 481.518 410.731 482.566 410.081 483.472C409.432 484.377 408.575 485.115 407.582 485.622Z" fill="#2F2E41"/>
<path d="M457.234 497.319L429.807 498.09C429.073 498.11 428.342 497.98 427.66 497.708C426.978 497.435 426.359 497.026 425.841 496.505C425.323 495.984 424.918 495.362 424.649 494.679C424.381 493.995 424.255 493.263 424.28 492.529C424.325 491.226 424.841 489.984 425.733 489.033C426.625 488.082 427.832 487.487 429.129 487.359L433.001 486.978L447.338 478.442L462.151 484.11L463.572 487.856C463.967 488.898 464.107 490.02 463.981 491.127C463.854 492.235 463.464 493.296 462.844 494.222C462.224 495.148 461.391 495.913 460.415 496.452C459.439 496.99 458.348 497.288 457.234 497.319Z" fill="#2F2E41"/>
<path d="M429.348 181.231C439.515 181.231 447.757 172.989 447.757 162.822C447.757 152.655 439.515 144.413 429.348 144.413C419.182 144.413 410.94 152.655 410.94 162.822C410.94 172.989 419.182 181.231 429.348 181.231Z" fill="#FFB8B8"/>
<path d="M459.536 192.286L421.246 206.927C423.476 194.905 423.504 183.58 419.838 173.423L444.332 169.2C442.277 179.76 448.644 186.933 459.536 192.286Z" fill="#FFB8B8"/>
<path d="M475.302 339.815C441.601 346.213 414.464 342.108 392.529 329.679C402.674 294.723 404.117 256.046 401.461 215.618C401.2 211.576 402.201 207.552 404.326 204.103C406.452 200.655 409.597 197.952 413.326 196.37L422.935 192.286C428.116 204.06 440.057 197.275 452.779 188.345L468.499 195.291C470.995 196.393 473.095 198.232 474.518 200.56C475.94 202.888 476.617 205.596 476.459 208.32C473.316 262.024 469.091 319.6 475.302 339.815Z" fill="#E6E6E6"/>
<path d="M486.564 331.931L485.562 346.295C485.379 348.912 484.168 351.351 482.193 353.079C480.218 354.806 477.64 355.682 475.021 355.515C473.305 355.406 471.647 354.853 470.21 353.91C468.772 352.968 467.603 351.668 466.818 350.139C466.033 348.609 465.658 346.902 465.731 345.185C465.803 343.467 466.32 341.797 467.232 340.339L475.302 327.427C480.07 308.84 476.288 282.069 470.797 253.663L493.321 247.469C496.501 271.234 492.919 300.462 486.564 331.931Z" fill="#FFB8B8"/>
<path d="M450.422 150.862C450.422 150.862 453.863 143.291 444.915 139.85C444.915 139.85 437.344 127.461 422.202 135.72C422.202 135.72 411.878 139.85 411.878 150.862C411.878 161.875 408.437 163.939 408.437 163.939C408.437 163.939 413.562 158.682 414.938 154.552C416.315 150.423 427.02 149.486 431.15 153.615C435.28 157.745 445.604 157.057 445.604 157.057L444.915 172.199C444.915 172.199 448.357 163.251 449.733 163.251C451.11 163.251 452.486 150.862 450.422 150.862Z" fill="#2F2E41"/>
<path d="M501.204 248.032L463.477 258.73V192.85L468.485 194.47C472.86 195.885 476.835 198.321 480.082 201.577C483.33 204.832 485.756 208.813 487.16 213.192L501.204 248.032Z" fill="#E6E6E6"/>
<path d="M642.244 498.035H173.855V499.581H642.244V498.035Z" fill="#E6E6E6"/>
<path d="M527.543 373.309C537.782 387.783 540.487 470.164 541.09 496.57C541.105 497.165 541.121 497.729 541.129 498.263H567.048C567.365 497.698 567.659 497.142 567.937 496.57C583.3 466.246 574.776 429.885 574.328 428.046C575.495 433.827 570.217 450.581 564.251 466.81C560.611 416.91 529.49 375.828 527.543 373.309Z" fill="#E6E6E6"/>
</g>
<defs>
<clipPath id="clip0">
<rect width="642.244" height="500" fill="white"/>
</clipPath>
</defs>
</svg>
